<svg version="1.1" id="Isolation_Mode" xmlns="http://www.w3.org/2000/svg" xmlns:xlink="http://www.w3.org/1999/xlink" x="0px" y="0px" viewBox="0 0 34.2 30.4" style="enable-background:new 0 0 34.2 30.4;" xml:space="preserve">
    <path class="st0" d="M33.6,9.2l-2.5-2.5c-0.4-0.4-1.1-0.4-1.5,0l-1.5,1.5l0,0l-4.7,4.7V1.4c0-0.6-0.5-1.1-1.1-1.1H1.4
    c-0.6,0-1.1,0.5-1.1,1.1V29c0,0.6,0.5,1.1,1.1,1.1h20.9c0.6,0,1.1-0.5,1.1-1.1v-8.2l8.7-8.7l0,0l1.5-1.5c0.2-0.2,0.3-0.5,0.3-0.7
    C33.9,9.7,33.8,9.4,33.6,9.2z M21.3,28H2.5V2.5h18.8v12.6l-4.5,4.5l0,0c-0.1,0.1-0.1,0.2-0.2,0.3l-1,2.3l0,0l-1.1,2.3
    c-0.2,0.4-0.1,0.9,0.2,1.2c0.2,0.2,0.5,0.3,0.7,0.3c0.1,0,0.3,0,0.4-0.1l2.3-1l0,0l2.3-1c0.1,0,0.2-0.1,0.3-0.2l0,0l0.6-0.6
    L21.3,28L21.3,28z"></path>
    <rect x="5.7" y="6.4" class="st0" width="9.7" height="2.1"></rect>
</svg>