<svg version="1.1" id="Layer_1" xmlns="http://www.w3.org/2000/svg" xmlns:xlink="http://www.w3.org/1999/xlink" x="0px" y="0px" viewBox="0 0 41.3 31.3" style="enable-background:new 0 0 41.3 31.3;" xml:space="preserve">
    <path class="st0" d="M39.6,0.5H15c-0.7,0-1.2,0.5-1.2,1.2v4.5H1.7C1,6.2,0.5,6.7,0.5,7.4v14.2c0,0.7,0.5,1.2,1.2,1.2h3.2l3.9,7.4
    c0.2,0.4,0.6,0.6,1.1,0.6c0.1,0,0.2,0,0.3,0c0.5-0.2,0.9-0.7,0.9-1.2l-0.4-6.8h15.6c0.7,0,1.2-0.5,1.2-1.2v-4.5h3.2l0.1,6.8
    c0,0.6,0.4,1,1,1.2c0.1,0,0.2,0,0.2,0c0.5,0,0.9-0.3,1.1-0.7l3.3-7.3h3.2c0.7,0,1.2-0.5,1.2-1.2V1.7C40.8,1,40.3,0.5,39.6,0.5z
    M25.1,20.3H9.4c-0.3,0-0.6,0.1-0.9,0.4c-0.2,0.2-0.3,0.6-0.3,0.9l0.1,2.5L6.7,21c-0.2-0.4-0.6-0.6-1.1-0.6H2.9V8.6h22.2V20.3z
    M38.4,14.7h-2.7c-0.5,0-0.9,0.3-1.1,0.7l-1.4,3.1v-2.6c0-0.7-0.5-1.2-1.2-1.2h-4.4V7.4c0-0.7-0.5-1.2-1.2-1.2H16.3V2.9h22.2
    L38.4,14.7L38.4,14.7z"></path>
</svg>