<svg version="1.1" id="icons" xmlns="http://www.w3.org/2000/svg" xmlns:xlink="http://www.w3.org/1999/xlink" x="0px" y="0px" viewBox="0 0 36.4 36.7" style="enable-background:new 0 0 36.4 36.7;" xml:space="preserve">
	<path class="st0" d="M35.4,13.8c-0.7-0.8-1.7-1.2-2.8-1.2c-1.1,0-2.1,0.4-2.8,1.1l-6.2,5.9c-0.4-0.7-1-1.2-1.6-1.6
	c3.4-1.4,5.7-4.8,5.7-8.6c0-5.2-4.2-9.4-9.4-9.4S8.9,4.2,8.9,9.4c0,3.5,1.9,6.5,4.7,8.1H13c-1.1-0.1-8.3-0.8-12.6,6.5
	c-0.4,0.6-0.2,1.5,0.5,1.8c0.6,0.4,1.5,0.2,1.8-0.5c3.6-6.1,9.7-5.2,10-5.2c0.1,0,0.1,0,0.2,0H20c0.8,0,1.5,0.7,1.5,1.5
	s-0.7,1.5-1.5,1.5c-0.1,0-0.1,0-0.2,0l-6.3,0.8c-0.7,0.1-1.3,0.8-1.2,1.5s0.7,1.2,1.3,1.2c0.1,0,0.1,0,0.2,0l6.2-0.8
	c1.8,0,3.3-1.2,3.8-2.8l0,0l7.7-7.3c0.2-0.2,0.6-0.3,0.9-0.3c0.3,0,0.6,0.1,0.9,0.4c0.2,0.2,0.3,0.6,0.3,0.9s-0.1,0.6-0.4,0.9
	l-0.1,0.1l-7.2,9c-0.2,0.2-2.5,2.6-6.4,3.5L1.1,34c-0.7,0.1-1.2,0.9-1.1,1.6c0.1,0.6,0.7,1.1,1.3,1.1c0.1,0,0.2,0,0.3,0L20,32.9l0,0
	c5-1.2,7.8-4.2,7.9-4.4l0,0l7.2-9c0.7-0.7,1.1-1.7,1.2-2.7C36.5,15.6,36.1,14.6,35.4,13.8z M12,8.5h1.9l-0.8-2.7h1.7l1.5,4.7
	l1.3-4.2h1.6l1.3,4.2L22,5.8h1.7l-0.8,2.7h1.9v1.6h-2.4l-1.1,3.4h-1.6l-1.3-4.2l-1.3,4.2h-1.6l-1.1-3.4H12L12,8.5L12,8.5z"></path>
</svg>