<svg version="1.1" id="Isolation_Mode" xmlns="http://www.w3.org/2000/svg" xmlns:xlink="http://www.w3.org/1999/xlink" x="0px" y="0px" viewBox="0 0 22.9 31.2" style="enable-background:new 0 0 22.9 31.2;" xml:space="preserve">
    <path class="st0" d="M20.1,0.4H2.8C1,0.4,0.4,1,0.4,2.8v3v19.6v3c0,1.8,0.6,2.4,2.4,2.4h17.3c1.8,0,2.4-0.6,2.4-2.4v-3V5.8v-3
    C22.5,1,21.9,0.4,20.1,0.4z M20.6,28.4c0,0.2,0,0.4,0,0.5c-0.1,0-0.3,0-0.5,0H2.8c-0.2,0-0.4,0-0.5,0c0-0.1,0-0.3,0-0.5v-3h18.4
    L20.6,28.4L20.6,28.4z M20.6,23.6H2.2V7.7h18.4V23.6z M20.6,5.8H2.2v-3c0-0.2,0-0.4,0-0.5c0.1,0,0.3,0,0.5,0H20c0.2,0,0.4,0,0.5,0
    c0,0.1,0,0.3,0,0.5L20.6,5.8L20.6,5.8z"></path>
    <path class="st1" d="M11,28.1h0.8c0.5,0,0.9-0.4,0.9-0.9s-0.4-0.9-0.9-0.9H11c-0.5,0-0.9,0.4-0.9,0.9S10.5,28.1,11,28.1z"></path>
</svg>