<svg version="1.1" id="Isolation_Mode" xmlns="http://www.w3.org/2000/svg" xmlns:xlink="http://www.w3.org/1999/xlink" x="0px" y="0px" viewBox="0 0 31.3 31.4" style="enable-background:new 0 0 31.3 31.4;" xml:space="preserve">
    <path class="st0" d="M15.7,31.4C7.1,31.4,0,24.4,0,15.7S7,0,15.7,0c8.6,0,15.6,7,15.6,15.7S24.3,31.4,15.7,31.4z M15.7,2.9
    C8.6,2.9,2.9,8.6,2.9,15.7c0,7.1,5.7,12.8,12.8,12.8s12.8-5.7,12.8-12.8C28.5,8.7,22.8,2.9,15.7,2.9z"></path>
    <rect x="15.2" y="4.5" class="st0" width="1.7" height="2"></rect>
    <rect x="15.2" y="24.7" class="st0" width="1.7" height="2"></rect>
    <rect x="25.1" y="14.8" class="st0" width="2" height="1.7"></rect>
    <rect x="4.9" y="14.8" class="st0" width="2" height="1.7"></rect>
    <path class="st0" d="M16,19c-1.1,0-2-0.9-2-2s0.9-2,2-2s2,0.9,2,2S17.1,19,16,19z M16,16.6c-0.2,0-0.3,0.1-0.3,0.3
	c0,0.3,0.6,0.3,0.6,0C16.3,16.8,16.2,16.6,16,16.6z"></path>
    <rect x="11.5" y="10.5" transform="matrix(0.7069 -0.7073 0.7073 0.7069 -5.9226 12.9384)" class="st0" width="2.3" height="6.2"></rect>
    <rect x="16.2" y="12.3" transform="matrix(0.7071 -0.7071 0.7071 0.7071 -3.7639 17.7678)" class="st0" width="6.7" height="2.3"></rect>
</svg>