<svg version="1.1" id="Isolation_Mode" xmlns="http://www.w3.org/2000/svg" xmlns:xlink="http://www.w3.org/1999/xlink" x="0px" y="0px" viewBox="0 0 36.6 27.1" style="enable-background:new 0 0 36.6 27.1;" xml:space="preserve">
    <path class="st0" d="M33.5,14.8c-1-1.6-2.3-2.8-3.8-3.7c1.4-1.1,2.2-2.8,2.2-4.7c0-3.4-2.7-6.1-6.1-6.1S19.7,3,19.7,6.3
    c0,1.9,0.9,3.6,2.2,4.7c-1.4,0.8-2.6,1.9-3.6,3.3c-1-1.4-2.2-2.6-3.6-3.3c1.4-1.1,2.2-2.8,2.2-4.7c0-3.4-2.7-6.1-6.1-6.1
    S4.7,3,4.7,6.3c0,1.9,0.9,3.6,2.2,4.7c-1.5,0.8-2.8,2.1-3.8,3.7c-1.9,2.8-2.9,6.5-2.9,10.6c0,0.2,0,0.2,0,0.2v1.3h14.9h6.3h14.9
    v-1.3c0,0,0-0.1,0-0.2l0,0C36.4,21.3,35.3,17.6,33.5,14.8z M21.5,24.3h-1.3h-1.3h-1c0.1-1.2,0.2-2.3,0.5-3.4
    c0.2-0.8,0.4-1.5,0.7-2.2c0.2-0.6,0.5-1.1,0.8-1.6c0.2-0.3,0.3-0.6,0.5-0.8c1.5-2.3,3.5-3.5,5.5-3.5s4,1.2,5.5,3.5
    c1.4,2,2.3,4.9,2.5,8H21.5z M2.9,24.3c0.2-3.2,1.1-6,2.5-8c1.5-2.3,3.5-3.5,5.5-3.5s4,1.2,5.5,3.5c0.2,0.3,0.3,0.5,0.5,0.8
    c-0.9,2.1-1.5,4.6-1.7,7.2H2.9z M7.4,6.4C7.4,4.5,8.9,3,10.8,3s3.4,1.5,3.4,3.4s-1.5,3.4-3.4,3.4C9,9.8,7.4,8.3,7.4,6.4z M22.4,6.4
    c0-1.9,1.5-3.4,3.4-3.4s3.4,1.5,3.4,3.4s-1.5,3.4-3.4,3.4C23.9,9.8,22.4,8.3,22.4,6.4z">
    </path>
</svg>