<svg version="1.1" xmlns="http://www.w3.org/2000/svg" xmlns:xlink="http://www.w3.org/1999/xlink" x="0px" y="0px" viewBox="0 0 43.6 19.8" style="enable-background:new 0 0 43.6 19.8;" xml:space="preserve">
	<g>
		<g>
			<path d="M6.3,4.4c0,0-1.5,0-2.9,1.3V0.3H0v14.2h3.4v-1.1c0,0,0.8,1.5,2.9,1.5c0,0,4.8-0.2,4.8-5.3C11.1,9.6,11,4.4,6.3,4.4z
				 M5.6,11.9c-1.2,0-2.2-1-2.2-2.2s1-2.2,2.2-2.2s2.2,1,2.2,2.2S6.8,11.9,5.6,11.9z"></path>
			<path d="M12.2,0v3.3c0,0,1.6-0.1,1.6,2.8v8.4h3.3V5.3C17.1,5.3,17.2,0,12.2,0z"></path>
			<path d="M25.1,4.4c0,0-5.6,0-5.6,5.3c0,0-0.2,5.2,5.6,5.2c0,0,5.8,0,5.8-5.2C30.9,9.7,31.1,4.4,25.1,4.4z M25.1,11.9
				c-1.2,0-2.2-1-2.2-2.2s1-2.2,2.2-2.2s2.2,1,2.2,2.2S26.3,11.9,25.1,11.9z"></path>
			<path d="M40.3,4.8v1c0,0-1-1.3-2.9-1.3c0,0-4.8-0.2-4.8,5.2c0,0-0.1,5.1,4.7,5.1c0,0,1.9,0.1,3-1.3v0.8c0,0,0.2,2.5-2.2,2.5h-0.8
				v3h1.3c0,0,5,0.1,5-5.3V4.8H40.3z M38.3,11.9c-1.2,0-2.2-1-2.2-2.2s1-2.2,2.2-2.2s2.2,1,2.2,2.2S39.5,11.9,38.3,11.9z"></path>
		</g>
	</g>
</svg>