<svg version="1.1" xmlns="http://www.w3.org/2000/svg" xmlns:xlink="http://www.w3.org/1999/xlink" x="0px" y="0px" viewBox="0 0 21.4 21.4" style="enable-background:new 0 0 21.4 21.4;" xml:space="preserve">
	<path d="M15.2,0h-9C2.8,0,0,2.8,0,6.2v9c0,3.4,2.8,6.2,6.2,6.2h9c3.4,0,6.2-2.8,6.2-6.2v-9C21.3,2.8,18.6,0,15.2,0 M19.4,15.3
		c0,2.3-1.8,4.1-4.1,4.1H6.1c-2.3,0-4.1-1.8-4.1-4.1V6.1C2,3.8,3.8,2,6.1,2h9.2c2.3,0,4.1,1.8,4.1,4.1V15.3z"></path>
	<path d="M10.7,5.2c-3.1,0-5.5,2.5-5.5,5.5c0,3.1,2.5,5.5,5.5,5.5c3.1,0,5.5-2.5,5.5-5.5S13.7,5.2,10.7,5.2 M10.7,14.3
		c-2,0-3.6-1.6-3.6-3.6s1.6-3.6,3.6-3.6s3.6,1.6,3.6,3.6C14.3,12.7,12.6,14.3,10.7,14.3"></path>
	<path d="M16.4,3.7c-0.7,0-1.3,0.6-1.3,1.3c0,0.7,0.6,1.3,1.3,1.3s1.3-0.6,1.3-1.3C17.7,4.3,17.1,3.7,16.4,3.7"></path>
</svg>