<svg version="1.1" xmlns="http://www.w3.org/2000/svg" xmlns:xlink="http://www.w3.org/1999/xlink" x="0px" y="0px" viewBox="0 0 21.4 15.3" style="enable-background:new 0 0 21.4 15.3;" xml:space="preserve">
	<path d="M21.1,2.8c-0.4-1.6-1.2-2.3-2.6-2.5C17.7,0.2,13.8,0,10.7,0s-7,0.2-7.8,0.3C1.5,0.5,0.7,1.2,0.3,2.8C0.2,3.3,0,6.3,0,7.5
		v0.3c0,1.1,0.2,4.1,0.3,4.7c0.4,1.6,1.2,2.3,2.6,2.5c0.8,0.1,4.7,0.3,7.8,0.3l0,0c3.1,0,7-0.2,7.8-0.3c1.4-0.2,2.2-0.9,2.6-2.5
		c0.1-0.5,0.3-3.5,0.3-4.7V7.5C21.4,6.4,21.2,3.4,21.1,2.8z M8.1,10.4V4.9l5.1,2.7L8.1,10.4z"></path>
</svg>